<?xml version="1.0" encoding="UTF-8"?>
<svg xmlns="http://www.w3.org/2000/svg" xmlns:xlink="http://www.w3.org/1999/xlink" width="25pt" height="25pt" viewBox="0 0 25 25" version="1.1">
<g id="surface1">
<path style=" stroke:none;fill-rule:evenodd;fill:rgb(0%,0%,0%);fill-opacity:1;" d="M 12.5 0 C 19.402344 0 25 5.597656 25 12.5 C 25 19.402344 19.402344 25 12.5 25 C 5.597656 25 0 19.402344 0 12.5 C 0 5.597656 5.597656 0 12.5 0 Z M 6.253906 7.730469 L 12.613281 12.914062 L 18.699219 7.730469 Z M 5.84375 16.457031 L 10.375 11.910156 L 5.839844 8.21875 L 5.839844 16.453125 Z M 10.871094 12.320312 L 6.203125 17 L 18.761719 17 L 14.296875 12.320312 L 12.816406 13.570312 C 12.699219 13.667969 12.527344 13.667969 12.410156 13.570312 L 10.867188 12.3125 Z M 14.785156 11.910156 L 19.160156 16.496094 L 19.160156 8.175781 L 14.785156 11.902344 Z M 14.785156 11.910156 "/>
</g>
</svg>
