<svg id="svg" version="1.1" xmlns="http://www.w3.org/2000/svg" xmlns:xlink="http://www.w3.org/1999/xlink" width="400" height="392.1875" viewBox="0, 0, 400,392.1875"><g id="svgg"><path id="path0" d="M219.823 66.993 C 218.555 67.487,217.139 69.232,216.742 70.789 C 216.513 71.688,216.052 73.616,215.719 75.074 C 215.386 76.531,214.837 78.916,214.499 80.373 C 214.162 81.830,213.644 84.082,213.348 85.378 C 213.052 86.673,212.366 89.588,211.824 91.855 C 211.283 94.122,210.562 97.213,210.223 98.724 C 209.883 100.236,208.192 107.566,206.463 115.015 C 204.735 122.463,202.603 131.649,201.727 135.427 C 200.850 139.205,199.636 144.416,199.028 147.007 C 198.421 149.598,197.538 153.395,197.065 155.447 C 195.890 160.544,194.854 164.980,193.537 170.559 C 191.492 179.219,190.325 184.271,189.592 187.635 C 189.192 189.470,188.602 192.031,188.280 193.327 C 187.958 194.622,186.956 198.862,186.053 202.748 C 185.150 206.634,183.894 212.022,183.262 214.720 C 182.629 217.419,181.954 220.334,181.761 221.197 C 180.945 224.840,180.499 226.773,180.177 228.067 C 179.988 228.822,179.658 230.236,179.444 231.207 C 178.683 234.655,178.159 236.919,177.764 238.469 C 176.963 241.612,176.670 242.856,175.870 246.516 C 175.421 248.567,174.893 250.864,174.696 251.619 C 174.499 252.375,174.163 253.788,173.948 254.760 C 173.194 258.177,172.665 260.465,172.315 261.825 C 172.121 262.581,171.691 264.392,171.359 265.849 C 171.027 267.306,170.484 269.691,170.152 271.148 C 169.821 272.605,169.390 274.416,169.196 275.172 C 169.002 275.927,168.667 277.341,168.453 278.312 C 167.758 281.462,167.181 283.974,166.830 285.378 C 166.642 286.133,166.309 287.547,166.091 288.518 C 165.468 291.297,164.080 297.213,163.696 298.724 C 163.504 299.480,163.171 300.893,162.957 301.865 C 161.997 306.213,161.601 307.907,160.614 311.874 C 158.642 319.797,159.118 320.489,168.008 322.624 C 182.139 326.020,182.722 325.867,184.302 318.351 C 185.011 314.979,185.932 310.933,186.447 308.930 C 186.641 308.175,186.981 306.762,187.202 305.790 C 187.423 304.818,188.046 302.169,188.587 299.902 C 189.128 297.635,189.938 294.102,190.387 292.051 C 191.195 288.362,191.893 285.353,193.712 277.723 C 194.227 275.564,195.114 271.766,195.682 269.284 C 197.087 263.154,198.094 258.840,199.211 254.171 C 199.727 252.012,200.791 247.419,201.576 243.965 C 202.360 240.510,204.489 231.325,206.306 223.553 C 208.123 215.780,209.887 208.184,210.226 206.673 C 210.566 205.162,211.344 201.806,211.957 199.215 C 212.569 196.624,213.722 191.678,214.519 188.224 C 215.315 184.769,216.492 179.735,217.133 177.036 C 218.329 172.002,218.783 170.034,220.762 161.335 C 221.081 159.931,221.782 156.928,222.320 154.661 C 222.858 152.395,223.682 148.773,224.153 146.614 C 224.623 144.455,225.156 142.247,225.337 141.708 C 225.517 141.168,226.139 138.606,226.718 136.016 C 227.772 131.300,228.152 129.641,228.812 126.889 C 229.006 126.079,229.550 123.739,230.019 121.688 C 230.489 119.637,231.019 117.341,231.197 116.585 C 231.375 115.829,231.733 114.239,231.992 113.052 C 232.434 111.028,232.737 109.717,233.533 106.379 C 233.850 105.052,235.255 99.098,235.964 96.075 C 236.155 95.265,236.469 93.940,236.663 93.131 C 236.857 92.321,237.400 89.980,237.870 87.929 C 238.340 85.878,238.870 83.582,239.049 82.826 C 241.719 71.527,241.673 71.433,232.477 69.284 C 229.080 68.490,225.770 67.689,225.123 67.504 C 223.390 67.008,220.499 66.730,219.823 66.993 M90.616 104.922 C 86.202 110.809,78.423 121.065,75.370 125.025 C 74.371 126.320,70.220 131.796,66.146 137.193 C 62.071 142.591,57.036 149.215,54.956 151.914 C 52.876 154.612,48.695 160.088,45.665 164.082 C 42.635 168.077,38.075 174.082,35.531 177.429 C 32.987 180.775,29.407 185.500,27.574 187.929 L 24.242 192.345 25.957 194.602 C 26.900 195.844,27.769 196.948,27.888 197.056 C 28.007 197.164,28.529 197.870,29.048 198.626 C 29.567 199.382,30.089 200.088,30.208 200.196 C 30.327 200.304,31.760 202.159,33.393 204.318 C 36.599 208.559,38.856 211.529,54.120 231.600 C 69.658 252.030,72.125 255.281,77.354 262.218 C 80.040 265.780,82.327 268.783,82.436 268.891 C 82.648 269.100,85.721 273.144,90.789 279.882 C 92.494 282.149,94.246 284.313,94.682 284.691 C 95.416 285.327,97.055 285.378,116.825 285.378 C 139.333 285.378,139.037 285.403,137.443 283.637 C 137.041 283.191,134.318 279.647,131.392 275.761 C 128.466 271.874,124.117 266.133,121.728 263.003 C 119.338 259.872,113.453 252.100,108.648 245.731 C 103.844 239.362,99.823 234.063,99.711 233.955 C 99.408 233.660,99.716 234.064,80.577 208.832 C 77.711 205.054,75.146 201.695,74.876 201.369 C 72.576 198.578,68.302 192.705,68.302 192.334 C 68.302 192.080,69.660 190.079,71.320 187.889 C 75.640 182.187,76.714 180.791,76.953 180.569 C 77.069 180.461,79.219 177.635,81.731 174.289 C 84.242 170.942,87.914 166.084,89.890 163.494 C 91.866 160.903,96.028 155.427,99.139 151.325 C 102.251 147.223,106.882 141.129,109.432 137.782 C 111.981 134.436,116.610 128.342,119.718 124.239 C 125.100 117.135,129.642 111.168,135.514 103.488 C 136.978 101.575,138.175 99.852,138.175 99.661 C 138.175 99.463,128.845 99.319,116.487 99.328 L 94.799 99.343 90.616 104.922 M264.966 99.547 C 264.966 99.786,266.517 102.100,266.915 102.453 C 267.036 102.561,268.530 104.504,270.233 106.771 C 273.076 110.554,277.543 116.446,291.471 134.781 C 294.283 138.483,299.062 144.779,302.091 148.773 C 305.121 152.767,309.278 158.243,311.330 160.942 C 313.383 163.641,316.805 168.145,318.936 170.952 C 322.561 175.727,325.413 179.465,326.123 180.373 C 329.762 185.024,334.838 191.992,334.838 192.337 C 334.838 192.588,333.197 194.944,331.191 197.574 C 321.610 210.136,312.830 221.685,310.994 224.141 C 310.267 225.113,307.569 228.646,304.998 231.992 C 302.427 235.339,296.644 242.934,292.148 248.871 C 287.652 254.809,281.960 262.316,279.499 265.554 C 266.852 282.198,264.981 284.765,265.278 285.062 C 265.455 285.239,275.203 285.339,286.939 285.283 L 308.278 285.182 310.391 282.434 C 311.553 280.922,314.301 277.301,316.497 274.387 C 318.693 271.472,320.584 268.999,320.698 268.891 C 320.812 268.783,322.241 266.928,323.874 264.769 C 329.564 257.242,334.598 250.621,336.407 248.283 C 337.410 246.987,340.235 243.278,342.685 240.039 C 353.220 226.117,358.092 219.696,361.895 214.720 C 364.124 211.806,367.464 207.390,369.319 204.907 C 371.173 202.424,372.790 200.304,372.911 200.196 C 373.031 200.088,374.425 198.287,376.008 196.193 L 378.885 192.386 377.976 191.090 C 377.477 190.377,376.181 188.646,375.097 187.242 C 373.306 184.924,350.500 154.925,340.331 141.511 C 333.878 132.999,328.258 125.599,319.167 113.641 C 314.571 107.596,310.255 101.904,309.576 100.993 L 308.342 99.337 286.654 99.325 C 274.725 99.319,264.966 99.418,264.966 99.547 " stroke="none" fill="#fafafa" fill-rule="evenodd"></path><path id="path1" d="M0.000 196.271 L 0.000 392.542 200.000 392.542 L 400.000 392.542 400.000 196.271 L 400.000 0.000 200.000 0.000 L 0.000 0.000 0.000 196.271 M225.123 67.504 C 225.770 67.689,229.080 68.490,232.477 69.284 C 241.064 71.291,241.570 71.993,239.829 79.490 C 239.578 80.569,239.227 82.071,239.049 82.826 C 238.870 83.582,238.340 85.878,237.870 87.929 C 237.400 89.980,236.857 92.321,236.663 93.131 C 236.469 93.940,236.155 95.265,235.964 96.075 C 235.255 99.098,233.850 105.052,233.533 106.379 C 232.737 109.717,232.434 111.028,231.992 113.052 C 231.733 114.239,231.375 115.829,231.197 116.585 C 231.019 117.341,230.489 119.637,230.019 121.688 C 229.550 123.739,229.006 126.079,228.812 126.889 C 228.152 129.641,227.772 131.300,226.718 136.016 C 226.139 138.606,225.517 141.168,225.337 141.708 C 225.156 142.247,224.623 144.455,224.153 146.614 C 223.682 148.773,222.858 152.395,222.320 154.661 C 221.782 156.928,221.081 159.931,220.762 161.335 C 218.783 170.034,218.329 172.002,217.133 177.036 C 216.492 179.735,215.315 184.769,214.519 188.224 C 213.722 191.678,212.569 196.624,211.957 199.215 C 211.344 201.806,210.566 205.162,210.226 206.673 C 209.887 208.184,208.123 215.780,206.306 223.553 C 204.489 231.325,202.360 240.510,201.576 243.965 C 200.791 247.419,199.727 252.012,199.211 254.171 C 198.094 258.840,197.087 263.154,195.682 269.284 C 195.114 271.766,194.227 275.564,193.712 277.723 C 191.893 285.353,191.195 288.362,190.387 292.051 C 189.938 294.102,189.128 297.635,188.587 299.902 C 188.046 302.169,187.423 304.818,187.202 305.790 C 186.981 306.762,186.641 308.175,186.447 308.930 C 185.932 310.933,185.011 314.979,184.302 318.351 C 182.722 325.867,182.139 326.020,168.008 322.624 C 159.118 320.489,158.642 319.797,160.614 311.874 C 161.601 307.907,161.997 306.213,162.957 301.865 C 163.171 300.893,163.504 299.480,163.696 298.724 C 164.080 297.213,165.468 291.297,166.091 288.518 C 166.309 287.547,166.642 286.133,166.830 285.378 C 167.181 283.974,167.758 281.462,168.453 278.312 C 168.667 277.341,169.002 275.927,169.196 275.172 C 169.390 274.416,169.821 272.605,170.152 271.148 C 170.484 269.691,171.027 267.306,171.359 265.849 C 171.691 264.392,172.121 262.581,172.315 261.825 C 172.665 260.465,173.194 258.177,173.948 254.760 C 174.163 253.788,174.499 252.375,174.696 251.619 C 174.893 250.864,175.421 248.567,175.870 246.516 C 176.670 242.856,176.963 241.612,177.764 238.469 C 178.159 236.919,178.683 234.655,179.444 231.207 C 179.658 230.236,179.988 228.822,180.177 228.067 C 180.499 226.773,180.945 224.840,181.761 221.197 C 181.954 220.334,182.629 217.419,183.262 214.720 C 183.894 212.022,185.150 206.634,186.053 202.748 C 186.956 198.862,187.958 194.622,188.280 193.327 C 188.602 192.031,189.192 189.470,189.592 187.635 C 190.325 184.271,191.492 179.219,193.537 170.559 C 194.854 164.980,195.890 160.544,197.065 155.447 C 197.538 153.395,198.421 149.598,199.028 147.007 C 199.636 144.416,200.850 139.205,201.727 135.427 C 202.603 131.649,204.735 122.463,206.463 115.015 C 208.192 107.566,209.883 100.236,210.223 98.724 C 210.562 97.213,211.283 94.122,211.824 91.855 C 212.366 89.588,213.052 86.673,213.348 85.378 C 213.644 84.082,214.162 81.830,214.499 80.373 C 214.837 78.916,215.386 76.531,215.719 75.074 C 216.908 69.876,217.172 69.142,218.197 68.189 C 219.834 66.665,221.583 66.492,225.123 67.504 M138.175 99.661 C 138.175 99.852,136.978 101.575,135.514 103.488 C 129.642 111.168,125.100 117.135,119.718 124.239 C 116.610 128.342,111.981 134.436,109.432 137.782 C 106.882 141.129,102.251 147.223,99.139 151.325 C 96.028 155.427,91.866 160.903,89.890 163.494 C 87.914 166.084,84.242 170.942,81.731 174.289 C 79.219 177.635,77.069 180.461,76.953 180.569 C 76.714 180.791,75.640 182.187,71.320 187.889 C 69.660 190.079,68.302 192.080,68.302 192.334 C 68.302 192.705,72.576 198.578,74.876 201.369 C 75.146 201.695,77.711 205.054,80.577 208.832 C 99.716 234.064,99.408 233.660,99.711 233.955 C 99.823 234.063,103.844 239.362,108.648 245.731 C 113.453 252.100,119.338 259.872,121.728 263.003 C 124.117 266.133,128.466 271.874,131.392 275.761 C 134.318 279.647,137.041 283.191,137.443 283.637 C 139.037 285.403,139.333 285.378,116.825 285.378 C 97.055 285.378,95.416 285.327,94.682 284.691 C 94.246 284.313,92.494 282.149,90.789 279.882 C 85.721 273.144,82.648 269.100,82.436 268.891 C 82.327 268.783,80.040 265.780,77.354 262.218 C 72.125 255.281,69.658 252.030,54.120 231.600 C 38.856 211.529,36.599 208.559,33.393 204.318 C 31.760 202.159,30.327 200.304,30.208 200.196 C 30.089 200.088,29.567 199.382,29.048 198.626 C 28.529 197.870,28.007 197.164,27.888 197.056 C 27.769 196.948,26.900 195.844,25.957 194.602 L 24.242 192.345 27.574 187.929 C 29.407 185.500,32.987 180.775,35.531 177.429 C 38.075 174.082,42.635 168.077,45.665 164.082 C 48.695 160.088,52.876 154.612,54.956 151.914 C 57.036 149.215,62.071 142.591,66.146 137.193 C 70.220 131.796,74.371 126.320,75.370 125.025 C 78.423 121.065,86.202 110.809,90.616 104.922 L 94.799 99.343 116.487 99.328 C 128.845 99.319,138.175 99.463,138.175 99.661 M309.576 100.993 C 310.255 101.904,314.571 107.596,319.167 113.641 C 328.258 125.599,333.878 132.999,340.331 141.511 C 350.500 154.925,373.306 184.924,375.097 187.242 C 376.181 188.646,377.477 190.377,377.976 191.090 L 378.885 192.386 376.008 196.193 C 374.425 198.287,373.031 200.088,372.911 200.196 C 372.790 200.304,371.173 202.424,369.319 204.907 C 367.464 207.390,364.124 211.806,361.895 214.720 C 358.092 219.696,353.220 226.117,342.685 240.039 C 340.235 243.278,337.410 246.987,336.407 248.283 C 334.598 250.621,329.564 257.242,323.874 264.769 C 322.241 266.928,320.812 268.783,320.698 268.891 C 320.584 268.999,318.693 271.472,316.497 274.387 C 314.301 277.301,311.553 280.922,310.391 282.434 L 308.278 285.182 286.939 285.283 C 275.203 285.339,265.455 285.239,265.278 285.062 C 264.981 284.765,266.852 282.198,279.499 265.554 C 281.960 262.316,287.652 254.809,292.148 248.871 C 296.644 242.934,302.427 235.339,304.998 231.992 C 307.569 228.646,310.267 225.113,310.994 224.141 C 312.830 221.685,321.610 210.136,331.191 197.574 C 333.197 194.944,334.838 192.588,334.838 192.337 C 334.838 191.992,329.762 185.024,326.123 180.373 C 325.413 179.465,322.561 175.727,318.936 170.952 C 316.805 168.145,313.383 163.641,311.330 160.942 C 309.278 158.243,305.121 152.767,302.091 148.773 C 299.062 144.779,294.283 138.483,291.471 134.781 C 277.543 116.446,273.076 110.554,270.233 106.771 C 268.530 104.504,267.036 102.561,266.915 102.453 C 266.517 102.100,264.966 99.786,264.966 99.547 C 264.966 99.418,274.725 99.319,286.654 99.325 L 308.342 99.337 309.576 100.993 " stroke="none" fill="#040404" fill-rule="evenodd"></path></g></svg>