<?xml version="1.0" encoding="UTF-8"?>
<svg xmlns="http://www.w3.org/2000/svg" xmlns:xlink="http://www.w3.org/1999/xlink" width="25pt" height="25pt" viewBox="0 0 25 25" version="1.1">
<g id="surface1">
<path style=" stroke:none;fill-rule:evenodd;fill:rgb(0%,0%,0%);fill-opacity:1;" d="M 12.5 0.3125 C 5.597656 0.3125 0 5.90625 0 12.8125 C 0 18.335938 3.582031 23.019531 8.546875 24.671875 C 9.171875 24.789062 9.402344 24.398438 9.402344 24.070312 C 9.402344 23.769531 9.390625 22.785156 9.386719 21.742188 C 5.90625 22.5 5.175781 20.269531 5.175781 20.269531 C 4.605469 18.824219 3.785156 18.4375 3.785156 18.4375 C 2.652344 17.660156 3.871094 17.679688 3.871094 17.679688 C 5.128906 17.765625 5.789062 18.964844 5.789062 18.964844 C 6.902344 20.878906 8.714844 20.324219 9.425781 20.003906 C 9.539062 19.195312 9.863281 18.644531 10.21875 18.332031 C 7.441406 18.019531 4.523438 16.945312 4.523438 12.15625 C 4.523438 10.792969 5.015625 9.675781 5.8125 8.800781 C 5.683594 8.484375 5.253906 7.214844 5.933594 5.492188 C 5.933594 5.492188 6.984375 5.15625 9.371094 6.773438 C 10.367188 6.5 11.4375 6.359375 12.5 6.355469 C 13.5625 6.359375 14.632812 6.496094 15.628906 6.773438 C 18.015625 5.15625 19.0625 5.492188 19.0625 5.492188 C 19.742188 7.214844 19.316406 8.488281 19.1875 8.800781 C 19.988281 9.675781 20.472656 10.792969 20.472656 12.15625 C 20.472656 16.957031 17.546875 18.011719 14.765625 18.320312 C 15.214844 18.710938 15.613281 19.46875 15.613281 20.636719 C 15.613281 22.308594 15.601562 23.65625 15.601562 24.066406 C 15.601562 24.398438 15.824219 24.789062 16.460938 24.664062 C 21.425781 23.011719 25 18.328125 25 12.808594 C 25 5.90625 19.402344 0.308594 12.5 0.308594 Z M 12.5 0.3125 "/>
</g>
</svg>
