<?xml version="1.0" encoding="UTF-8"?>
<svg xmlns="http://www.w3.org/2000/svg" xmlns:xlink="http://www.w3.org/1999/xlink" width="25pt" height="25pt" viewBox="0 0 25 25" version="1.1">
<g id="surface1">
<path style=" stroke:none;fill-rule:evenodd;fill:rgb(0%,0%,0%);fill-opacity:1;" d="M 12.503906 0 C 19.40625 0 25.007812 5.59375 25.007812 12.503906 C 25.007812 19.40625 19.410156 25.007812 12.503906 25.007812 C 5.601562 25.007812 0 19.410156 0 12.503906 C 0 5.601562 5.59375 0 12.503906 0 Z M 10.890625 10.019531 L 13.457031 10.019531 L 13.457031 11.332031 L 13.492188 11.332031 C 13.855469 10.6875 14.722656 10.019531 16.027344 10.019531 C 18.738281 10.019531 19.238281 11.707031 19.238281 13.898438 L 19.238281 18.371094 L 16.5625 18.371094 L 16.5625 14.410156 C 16.5625 13.464844 16.539062 12.25 15.167969 12.25 C 13.769531 12.25 13.5625 13.277344 13.5625 14.339844 L 13.5625 18.371094 L 10.882812 18.371094 L 10.882812 10.019531 Z M 9.039062 7.703125 C 9.039062 8.46875 8.414062 9.097656 7.644531 9.097656 C 6.878906 9.097656 6.25 8.476562 6.25 7.703125 C 6.25 6.9375 6.871094 6.308594 7.644531 6.308594 C 8.410156 6.308594 9.039062 6.929688 9.039062 7.703125 Z M 6.253906 10.019531 L 9.039062 10.019531 L 9.039062 18.371094 L 6.253906 18.371094 Z M 6.253906 10.019531 "/>
</g>
</svg>
